<?xml version="1.0" standalone="no"?>
<!DOCTYPE svg PUBLIC "-//W3C//DTD SVG 20010904//EN"
 "http://www.w3.org/TR/2001/REC-SVG-20010904/DTD/svg10.dtd">
<svg version="1.0" xmlns="http://www.w3.org/2000/svg"
 width="246.000000pt" height="246.000000pt" viewBox="0 0 246.000000 246.000000"
 preserveAspectRatio="xMidYMid meet">
<metadata>
Created by potrace 1.14, written by Peter Selinger 2001-2017
</metadata>
<g transform="translate(0.000000,246.000000) scale(0.100000,-0.100000)"
fill="#000000" stroke="none">
<path d="M0 1230 l0 -1230 1230 0 1230 0 0 1230 0 1230 -1230 0 -1230 0 0
-1230z m1033 456 c37 -7 73 -18 78 -23 8 -8 6 -35 -5 -89 -8 -44 -18 -109 -22
-146 l-6 -68 -88 0 -88 0 0 60 c1 101 -37 130 -157 117 -69 -7 -109 -29 -140
-75 -33 -50 -44 -109 -45 -224 0 -165 35 -268 107 -318 30 -21 48 -25 102 -25
36 1 76 6 89 13 20 12 22 20 22 98 0 82 -1 85 -26 94 -14 6 -43 10 -65 10
l-40 0 7 63 c4 34 7 63 8 64 0 1 85 3 189 5 l187 3 6 -33 c5 -27 2 -36 -14
-48 -34 -24 -45 -79 -45 -231 0 -97 -4 -146 -12 -153 -19 -16 -174 -48 -265
-54 -47 -4 -119 -2 -160 4 -253 36 -393 246 -360 541 6 49 19 113 30 143 57
152 188 253 368 286 61 12 258 4 345 -14z m965 0 c40 -7 75 -16 79 -20 3 -3
-1 -57 -10 -119 -10 -61 -17 -129 -17 -150 0 -44 -1 -44 -101 -50 l-77 -4 -4
69 c-3 58 -8 72 -31 96 -25 25 -34 27 -101 27 -60 0 -80 -4 -103 -21 -73 -54
-98 -140 -90 -309 7 -143 27 -208 81 -262 45 -45 91 -60 150 -49 63 12 99 59
120 157 5 22 12 27 52 33 26 3 66 6 91 6 40 0 43 -2 38 -22 -3 -13 -9 -79 -15
-148 -6 -68 -14 -128 -19 -133 -16 -16 -140 -46 -240 -57 -277 -33 -464 82
-522 320 -18 74 -15 230 6 310 45 174 172 293 355 335 74 17 239 13 358 -9z"/>
</g>
</svg>
